<?xml version="1.0" ?><!DOCTYPE svg  PUBLIC '-//W3C//DTD SVG 1.1//EN'  'http://www.w3.org/Graphics/SVG/1.1/DTD/svg11.dtd'><svg enable-background="new 0 0 550 550" id="Layer_1" version="1.1" viewBox="0 0 550 550" xml:space="preserve" xmlns="http://www.w3.org/2000/svg" xmlns:xlink="http://www.w3.org/1999/xlink"><g><g><circle cx="275" cy="275" fill="#3F65A6" r="256"/><path d="M236.1,190.8c0,7.4,0,40.4,0,40.4h-29.6v49.4h29.6V416h60.8V280.5h40.8     c0,0,3.8-23.7,5.7-49.6c-5.3,0-46.2,0-46.2,0s0-28.7,0-33.8c0-5,6.6-11.8,13.2-11.8c6.5,0,20.3,0,33.1,0c0-6.7,0-30,0-51.4     c-17.1,0-36.5,0-45,0C234.6,134,236.1,183.4,236.1,190.8z" fill="#FFFFFF" id="Facebook_4_"/></g></g></svg>